<mxfile host="app.diagrams.net" modified="2021-02-01T20:32:45.854Z" agent="5.0 (Windows NT 10.0; Win64; x64) AppleWebKit/537.36 (KHTML, like Gecko) Chrome/87.0.4280.88 Safari/537.36" etag="c3fUKTgqmPVdyvvBDdzN" version="14.2.9" type="github" pages="2">
  <diagram id="GGU_VUVXnvePO5vE7XBs" name="First Page">
    <mxGraphModel dx="868" dy="1619" grid="1" gridSize="10" guides="1" tooltips="1" connect="1" arrows="1" fold="1" page="1" pageScale="1" pageWidth="827" pageHeight="1169" math="0" shadow="0">
      <root>
        <mxCell id="0" />
        <mxCell id="1" parent="0" />
        <mxCell id="w2cejcs7_V82Ki1rtpfb-1" value="Радик" style="rounded=0;whiteSpace=wrap;html=1;align=center;" vertex="1" parent="1">
          <mxGeometry x="144" y="93" width="268" height="27" as="geometry" />
        </mxCell>
        <mxCell id="w2cejcs7_V82Ki1rtpfb-2" value="Игрок 1:" style="text;html=1;strokeColor=none;fillColor=none;align=center;verticalAlign=middle;whiteSpace=wrap;rounded=0;" vertex="1" parent="1">
          <mxGeometry x="80" y="96" width="70" height="20" as="geometry" />
        </mxCell>
        <mxCell id="w2cejcs7_V82Ki1rtpfb-3" value="Натали" style="rounded=0;whiteSpace=wrap;html=1;align=center;" vertex="1" parent="1">
          <mxGeometry x="144" y="130" width="268" height="27" as="geometry" />
        </mxCell>
        <mxCell id="w2cejcs7_V82Ki1rtpfb-4" value="Игрок 2:" style="text;html=1;strokeColor=none;fillColor=none;align=center;verticalAlign=middle;whiteSpace=wrap;rounded=0;" vertex="1" parent="1">
          <mxGeometry x="80" y="133" width="70" height="20" as="geometry" />
        </mxCell>
        <mxCell id="w2cejcs7_V82Ki1rtpfb-7" value="&lt;font style=&quot;font-size: 24px&quot;&gt;Начать игру&lt;/font&gt;" style="rounded=1;whiteSpace=wrap;html=1;" vertex="1" parent="1">
          <mxGeometry x="158" y="190" width="240" height="60" as="geometry" />
        </mxCell>
        <mxCell id="w2cejcs7_V82Ki1rtpfb-8" value="" style="verticalLabelPosition=bottom;verticalAlign=top;html=1;shape=mxgraph.basic.smiley" vertex="1" parent="1">
          <mxGeometry x="228" y="-50" width="100" height="100" as="geometry" />
        </mxCell>
      </root>
    </mxGraphModel>
  </diagram>
  <diagram id="KrmJ9uvLHtY5zP5vQAhx" name="Game Page">
    <mxGraphModel dx="1021" dy="1698" grid="1" gridSize="10" guides="1" tooltips="1" connect="1" arrows="1" fold="1" page="1" pageScale="1" pageWidth="827" pageHeight="1169" math="0" shadow="0">
      <root>
        <mxCell id="KgRM2FiCStAtZyWizesP-0" />
        <mxCell id="KgRM2FiCStAtZyWizesP-1" parent="KgRM2FiCStAtZyWizesP-0" />
        <mxCell id="KgRM2FiCStAtZyWizesP-2" value="&lt;font style=&quot;font-size: 72px&quot;&gt;Х&lt;/font&gt;" style="whiteSpace=wrap;html=1;aspect=fixed;" vertex="1" parent="KgRM2FiCStAtZyWizesP-1">
          <mxGeometry x="160" y="120" width="120" height="120" as="geometry" />
        </mxCell>
        <mxCell id="KgRM2FiCStAtZyWizesP-3" value="" style="whiteSpace=wrap;html=1;aspect=fixed;" vertex="1" parent="KgRM2FiCStAtZyWizesP-1">
          <mxGeometry x="280" y="120" width="120" height="120" as="geometry" />
        </mxCell>
        <mxCell id="KgRM2FiCStAtZyWizesP-4" value="" style="whiteSpace=wrap;html=1;aspect=fixed;" vertex="1" parent="KgRM2FiCStAtZyWizesP-1">
          <mxGeometry x="400" y="120" width="120" height="120" as="geometry" />
        </mxCell>
        <mxCell id="KgRM2FiCStAtZyWizesP-5" value="" style="whiteSpace=wrap;html=1;aspect=fixed;" vertex="1" parent="KgRM2FiCStAtZyWizesP-1">
          <mxGeometry x="160" y="240" width="120" height="120" as="geometry" />
        </mxCell>
        <mxCell id="KgRM2FiCStAtZyWizesP-6" value="&lt;font style=&quot;font-size: 72px&quot;&gt;О&lt;/font&gt;" style="whiteSpace=wrap;html=1;aspect=fixed;" vertex="1" parent="KgRM2FiCStAtZyWizesP-1">
          <mxGeometry x="280" y="240" width="120" height="120" as="geometry" />
        </mxCell>
        <mxCell id="KgRM2FiCStAtZyWizesP-7" value="" style="whiteSpace=wrap;html=1;aspect=fixed;" vertex="1" parent="KgRM2FiCStAtZyWizesP-1">
          <mxGeometry x="400" y="240" width="120" height="120" as="geometry" />
        </mxCell>
        <mxCell id="KgRM2FiCStAtZyWizesP-8" value="" style="whiteSpace=wrap;html=1;aspect=fixed;" vertex="1" parent="KgRM2FiCStAtZyWizesP-1">
          <mxGeometry x="160" y="360" width="120" height="120" as="geometry" />
        </mxCell>
        <mxCell id="KgRM2FiCStAtZyWizesP-9" value="" style="whiteSpace=wrap;html=1;aspect=fixed;" vertex="1" parent="KgRM2FiCStAtZyWizesP-1">
          <mxGeometry x="280" y="360" width="120" height="120" as="geometry" />
        </mxCell>
        <mxCell id="KgRM2FiCStAtZyWizesP-10" value="" style="whiteSpace=wrap;html=1;aspect=fixed;" vertex="1" parent="KgRM2FiCStAtZyWizesP-1">
          <mxGeometry x="400" y="360" width="120" height="120" as="geometry" />
        </mxCell>
        <mxCell id="KgRM2FiCStAtZyWizesP-11" value="&lt;font style=&quot;font-size: 18px&quot;&gt;Игрок 1&lt;/font&gt;" style="text;html=1;strokeColor=none;fillColor=none;align=center;verticalAlign=middle;whiteSpace=wrap;rounded=0;" vertex="1" parent="KgRM2FiCStAtZyWizesP-1">
          <mxGeometry x="30" y="130" width="110" height="30" as="geometry" />
        </mxCell>
        <mxCell id="KgRM2FiCStAtZyWizesP-12" value="&lt;font style=&quot;font-size: 18px&quot;&gt;Игрок 2&lt;/font&gt;" style="text;html=1;strokeColor=none;fillColor=none;align=center;verticalAlign=middle;whiteSpace=wrap;rounded=0;" vertex="1" parent="KgRM2FiCStAtZyWizesP-1">
          <mxGeometry x="530" y="130" width="110" height="30" as="geometry" />
        </mxCell>
        <mxCell id="KgRM2FiCStAtZyWizesP-14" value="&lt;font style=&quot;font-size: 48px&quot;&gt;Х&lt;/font&gt;" style="whiteSpace=wrap;html=1;aspect=fixed;" vertex="1" parent="KgRM2FiCStAtZyWizesP-1">
          <mxGeometry x="45" y="180" width="80" height="80" as="geometry" />
        </mxCell>
        <mxCell id="KgRM2FiCStAtZyWizesP-15" value="&lt;span style=&quot;font-size: 48px&quot;&gt;О&lt;/span&gt;" style="whiteSpace=wrap;html=1;aspect=fixed;" vertex="1" parent="KgRM2FiCStAtZyWizesP-1">
          <mxGeometry x="545" y="180" width="80" height="80" as="geometry" />
        </mxCell>
        <mxCell id="KgRM2FiCStAtZyWizesP-16" value="&lt;font style=&quot;font-size: 72px&quot;&gt;1&lt;/font&gt;" style="text;html=1;strokeColor=none;fillColor=none;align=center;verticalAlign=middle;whiteSpace=wrap;rounded=0;" vertex="1" parent="KgRM2FiCStAtZyWizesP-1">
          <mxGeometry x="202.5" y="-20" width="75" height="120" as="geometry" />
        </mxCell>
        <mxCell id="KgRM2FiCStAtZyWizesP-17" value="&lt;font style=&quot;font-size: 72px&quot;&gt;0&lt;/font&gt;" style="text;html=1;strokeColor=none;fillColor=none;align=center;verticalAlign=middle;whiteSpace=wrap;rounded=0;" vertex="1" parent="KgRM2FiCStAtZyWizesP-1">
          <mxGeometry x="402.5" y="-20" width="75" height="120" as="geometry" />
        </mxCell>
        <mxCell id="KgRM2FiCStAtZyWizesP-18" value="&lt;font style=&quot;font-size: 48px&quot;&gt;:&lt;/font&gt;" style="text;html=1;strokeColor=none;fillColor=none;align=center;verticalAlign=middle;whiteSpace=wrap;rounded=0;" vertex="1" parent="KgRM2FiCStAtZyWizesP-1">
          <mxGeometry x="322.5" width="40" height="80" as="geometry" />
        </mxCell>
      </root>
    </mxGraphModel>
  </diagram>
</mxfile>
